<svg width="640" height="220" viewBox="0 0 640 220" fill="none" xmlns="http://www.w3.org/2000/svg">
  <defs>
    <linearGradient id="dxGradient" x1="40" y1="30" x2="180" y2="170" gradientUnits="userSpaceOnUse">
      <stop stop-color="#22C55E"></stop>
      <stop offset="1" stop-color="#0F766E"></stop>
    </linearGradient>

    <linearGradient id="textGradient" x1="220" y1="70" x2="520" y2="170" gradientUnits="userSpaceOnUse">
      <stop stop-color="#111827"></stop>
      <stop offset="1" stop-color="#374151"></stop>
    </linearGradient>

    <filter id="softShadow" x="-20%" y="-20%" width="140%" height="140%">
      <feDropShadow dx="0" dy="8" stdDeviation="10" flood-color="#0F172A" flood-opacity="0.12"></feDropShadow>
    </filter>
  </defs>

  <!-- Icon background -->
  <g filter="url(#softShadow)">
    <rect x="30" y="30" width="160" height="160" rx="38" fill="url(#dxGradient)"></rect>
  </g>

  <!-- Stylized D -->
  <path d="M72 62H104C132 62 153 69 166 82C178 95 184 112 184 125C184 138 178 155 166 168C153 181 132 188 104 188H72V62Z" fill="white" fill-opacity="0.16"></path>

  <path d="M82 76H104C126 76 142 81 152 91C161 100 166 112 166 125C166 138 161 150 152 159C142 169 126 174 104 174H82V76Z" fill="white"></path>

  <!-- Negative inner cut of D -->
  <path d="M106 96C120 96 131 99 138 106C145 113 148 119 148 125C148 131 145 137 138 144C131 151 120 154 106 154H102V96H106Z" fill="url(#dxGradient)"></path>

  <!-- X crossing through D -->
  <path d="M112 86L152 126L112 166" stroke="#ECFDF5" stroke-width="12" stroke-linecap="round" stroke-linejoin="round"></path>
  <path d="M152 86L112 126L152 166" stroke="#D1FAE5" stroke-width="12" stroke-linecap="round" stroke-linejoin="round"></path>

  <!-- Small freshness/detail accent -->
  <path d="M156 58C162 48 173 44 183 45C181 55 175 65 165 70" stroke="#BBF7D0" stroke-width="6" stroke-linecap="round" stroke-linejoin="round"></path>

  <!-- Brand text -->
  <text x="225" y="108" font-family="Arial, Helvetica, sans-serif" font-size="42" font-weight="700" fill="url(#textGradient)">
    DontExpiRe
  </text>

  <!-- Tagline -->
  <text x="227" y="145" font-family="Arial, Helvetica, sans-serif" font-size="18" font-weight="500" fill="#6B7280" letter-spacing="1.2">
    Smart food expiry tracking
  </text>
</svg>